{
    "asset" : {
        "generator" : "Khronos glTF Blender I/O v1.5.17",
        "version" : "2.0"
    },
    "extensionsUsed" : [
        "KHR_materials_transmission"
    ],
    "scene" : 0,
    "scenes" : [
        {
            "name" : "Scene",
            "nodes" : [
                0,
                1
            ]
        }
    ],
    "nodes" : [
        {
            "mesh" : 0,
            "name" : "Nukleus",
            "scale" : [
                1.195106863975525,
                1.195106863975525,
                1.195106863975525
            ]
        },
        {
            "mesh" : 1,
            "name" : "Membrane",
            "scale" : [
                1.8076756000518799,
                1.8076756000518799,
                1.8076756000518799
            ]
        }
    ],
    "materials" : [
        {
            "doubleSided" : true,
            "name" : "Material.004",
            "pbrMetallicRoughness" : {
                "baseColorFactor" : [
                    0.8000000715255737,
                    0.10577455908060074,
                    0.5329986214637756,
                    1
                ],
                "metallicFactor" : 0,
                "roughnessFactor" : 0
            }
        },
        {
            "alphaCutoff" : 0.5,
            "alphaMode" : "MASK",
            "doubleSided" : true,
            "extensions" : {
                "KHR_materials_transmission" : {
                    "transmissionFactor" : 1
                }
            },
            "name" : "Material.001",
            "pbrMetallicRoughness" : {
                "baseColorFactor" : [
                    0.800000011920929,
                    0.800000011920929,
                    0.800000011920929,
                    1
                ],
                "metallicFactor" : 0,
                "roughnessFactor" : 0.13342319428920746
            }
        }
    ],
    "meshes" : [
        {
            "name" : "Cube.001",
            "primitives" : [
                {
                    "attributes" : {
                        "POSITION" : 0,
                        "NORMAL" : 1,
                        "TEXCOORD_0" : 2
                    },
                    "indices" : 3,
                    "material" : 0
                }
            ]
        },
        {
            "name" : "Cube.002",
            "primitives" : [
                {
                    "attributes" : {
                        "POSITION" : 4,
                        "NORMAL" : 5,
                        "TEXCOORD_0" : 6
                    },
                    "indices" : 7,
                    "material" : 1
                }
            ]
        }
    ],
    "accessors" : [
        {
            "bufferView" : 0,
            "componentType" : 5126,
            "count" : 6372,
            "max" : [
                0.8609400391578674,
                0.9091652631759644,
                0.9210256338119507
            ],
            "min" : [
                -0.9022302627563477,
                -0.8713189363479614,
                -0.8796628713607788
            ],
            "type" : "VEC3"
        },
        {
            "bufferView" : 1,
            "componentType" : 5126,
            "count" : 6372,
            "type" : "VEC3"
        },
        {
            "bufferView" : 2,
            "componentType" : 5126,
            "count" : 6372,
            "type" : "VEC2"
        },
        {
            "bufferView" : 3,
            "componentType" : 5123,
            "count" : 36864,
            "type" : "SCALAR"
        },
        {
            "bufferView" : 4,
            "componentType" : 5126,
            "count" : 6373,
            "max" : [
                0.8666083216667175,
                0.8539131283760071,
                0.8424893021583557
            ],
            "min" : [
                -0.8595444560050964,
                -0.863204836845398,
                -0.8480119109153748
            ],
            "type" : "VEC3"
        },
        {
            "bufferView" : 5,
            "componentType" : 5126,
            "count" : 6373,
            "type" : "VEC3"
        },
        {
            "bufferView" : 6,
            "componentType" : 5126,
            "count" : 6373,
            "type" : "VEC2"
        },
        {
            "bufferView" : 7,
            "componentType" : 5123,
            "count" : 36864,
            "type" : "SCALAR"
        }
    ],
    "bufferViews" : [
        {
            "buffer" : 0,
            "byteLength" : 76464,
            "byteOffset" : 0
        },
        {
            "buffer" : 0,
            "byteLength" : 76464,
            "byteOffset" : 76464
        },
        {
            "buffer" : 0,
            "byteLength" : 50976,
            "byteOffset" : 152928
        },
        {
            "buffer" : 0,
            "byteLength" : 73728,
            "byteOffset" : 203904
        },
        {
            "buffer" : 0,
            "byteLength" : 76476,
            "byteOffset" : 277632
        },
        {
            "buffer" : 0,
            "byteLength" : 76476,
            "byteOffset" : 354108
        },
        {
            "buffer" : 0,
            "byteLength" : 50984,
            "byteOffset" : 430584
        },
        {
            "buffer" : 0,
            "byteLength" : 73728,
            "byteOffset" : 481568
        }
    ],
    "buffers" : [
        {
            "byteLength" : 555296,
            "uri" : "data:application/octet-stream;base64,"
        }
    ]
}
