<svg width="320" height="568" viewBox="0 0 320 568" fill="none" xmlns="http://www.w3.org/2000/svg">
<g clip-path="url(#clip0_415_52)">
<rect width="320" height="568" fill="#E8DCD0"/>
<path fill-rule="evenodd" clip-rule="evenodd" d="M235.117 234.153C194.456 230.704 146.047 217.54 130.675 179.838C115.879 143.547 157.558 110.992 169.721 73.7608C177.881 48.7874 173.2 21.3196 189.265 0.509285C211.156 -27.8486 237.411 -64.1419 273.093 -60.1437C308.833 -56.1388 318.413 -9.7903 341.661 17.5857C367.082 47.5212 413.468 66.0096 413.519 105.22C413.573 145.739 374.789 173.985 341.898 197.755C310.24 220.635 274.092 237.459 235.117 234.153Z" fill="#5562D7"/>
<path fill-rule="evenodd" clip-rule="evenodd" d="M71.1447 115.578C87.5842 97.5529 113.236 89.6535 137.572 92.1018C160.483 94.4068 178.415 110.609 193.681 127.906C208.231 144.392 218.525 163.684 220.072 185.578C221.796 209.973 221.114 237.993 202.581 253.851C184.417 269.393 157 265.167 133.703 259.481C115.291 254.987 103.392 239.91 90.0727 226.392C76.3439 212.459 59.7254 200.319 56.4365 181.064C52.5139 158.1 55.4936 132.739 71.1447 115.578Z" stroke="#5562D7"/>
<path fill-rule="evenodd" clip-rule="evenodd" d="M341.409 173.21C325.861 183.014 306.578 174.885 288.339 172.5C273.388 170.545 259.196 168.817 246.425 160.791C228.277 149.385 204.347 139.314 201.702 118.052C198.964 96.0329 217.117 77.0275 234.26 62.9692C249.916 50.1306 270.443 40.5123 290.062 45.5938C307.624 50.1427 310.042 73.6823 323.332 86.0402C338.206 99.8698 366.57 100.686 370.692 120.565C374.934 141.022 359.065 162.075 341.409 173.21Z" stroke="white"/>
<path fill-rule="evenodd" clip-rule="evenodd" d="M0.117326 731.153C-40.5438 727.704 -88.9528 714.54 -104.325 676.839C-119.121 640.547 -77.4425 607.992 -65.2786 570.761C-57.1195 545.788 -61.8004 518.32 -45.7353 497.51C-23.8436 469.152 2.41105 432.858 38.0929 436.857C73.8333 440.861 83.4131 487.21 106.661 514.586C132.082 544.521 178.468 563.01 178.519 602.22C178.573 642.739 139.789 670.985 106.898 694.756C75.2399 717.635 39.0924 734.459 0.117326 731.153Z" fill="#5562D7"/>
<path fill-rule="evenodd" clip-rule="evenodd" d="M191.81 630.633C171.233 643.74 144.409 644.666 121.557 635.948C100.043 627.74 86.964 607.417 76.7444 586.734C67.0044 567.021 62.105 545.71 66.3287 524.172C71.0351 500.173 79.0103 473.304 101.042 462.835C122.634 452.576 147.996 463.815 169 475.387C185.6 484.533 193.148 502.195 202.476 518.721C212.09 535.756 224.961 551.814 223.108 571.26C220.898 594.452 211.399 618.154 191.81 630.633Z" stroke="#5562D7"/>
</g>
<defs>
<clipPath id="clip0_415_52">
<rect width="320" height="568" fill="white"/>
</clipPath>
</defs>
</svg>
